<?xml version="1.0" standalone="no"?><!DOCTYPE svg PUBLIC "-//W3C//DTD SVG 1.1//EN" "http://www.w3.org/Graphics/SVG/1.1/DTD/svg11.dtd"><svg class="icon" width="200px" height="179.49px" viewBox="0 0 1141 1024" version="1.1" xmlns="http://www.w3.org/2000/svg"><path d="M1141.351404 39.055942l-28.91333 218.474629c-126.144728-19.927251-251.601043-38.376709-377.75495-27.674187-115.460564 9.802996-227.405635 32.180995-309.124802 122.987208-150.018878 166.696821-68.391499 396.461416 158.252293 437.463272 141.115408 25.52634 283.919721 11.785624 425.448176-8.123269-5.452228 112.440727-5.764308 95.303843-10.674985 205.229569-1.073924 24.057726 4.277337 14.612705-161.648461 31.914809-176.004159 9.004437-351.879815 11.189-520.550085-52.888447C156.545029 905.721534 30.675666 809.16019 5.176863 630.815428c-26.251468-183.595056 48.803865-331.796524 192.516883-446.128091C413.36883 13.098197 790.802521-47.271 1141.351404 39.055942z" fill="#5B5C5C" /></svg>